mtllib waike.mtl

v  0.000000 40.000000 -0.000000
v  0.000000 40.000000 -0.000000
v  0.000000 40.000000 -0.000000
v  100.000000 40.000000 -0.000000
v  100.000000 40.000000 -0.000000
v  100.000000 40.000000 -0.000000
v  100.000000 38.042289 12.360565
v  100.000000 38.042289 12.360565
v  100.000000 32.360632 23.511457
v  100.000000 32.360632 23.511457
v  100.000000 23.511329 32.360737
v  100.000000 23.511329 32.360737
v  100.000000 12.360805 38.042215
v  100.000000 12.360805 38.042215
v  100.000000 -0.000000 39.999988
v  100.000000 -0.000000 39.999988
v  100.000000 -12.360805 38.042215
v  100.000000 -12.360805 38.042215
v  100.000000 -23.511329 32.360737
v  100.000000 -23.511329 32.360737
v  100.000000 -32.360631 23.511459
v  100.000000 -32.360631 23.511459
v  100.000000 -38.042289 12.360567
v  100.000000 -38.042289 12.360567
v  100.000000 -40.000000 0.000000
v  100.000000 -40.000000 0.000000
v  100.000000 -40.000000 0.000000
v  0.000000 -40.000000 0.000000
v  0.000000 -40.000000 0.000000
v  0.000000 -40.000000 0.000000
v  0.000000 -38.042289 12.360567
v  0.000000 -38.042289 12.360567
v  0.000000 -32.360631 23.511459
v  0.000000 -32.360631 23.511459
v  0.000000 -23.511329 32.360737
v  0.000000 -23.511329 32.360737
v  0.000000 -12.360805 38.042215
v  0.000000 -12.360805 38.042215
v  0.000000 -0.000000 39.999988
v  0.000000 -0.000000 39.999988
v  0.000000 12.360805 38.042215
v  0.000000 12.360805 38.042215
v  0.000000 23.511329 32.360737
v  0.000000 23.511329 32.360737
v  0.000000 32.360632 23.511457
v  0.000000 32.360632 23.511457
v  0.000000 38.042289 12.360565
v  0.000000 38.042289 12.360565
v  100.000000 -38.042289 -12.360565
v  100.000000 -38.042289 -12.360565
v  100.000000 -32.360632 -23.511457
v  100.000000 -32.360632 -23.511457
v  100.000000 -23.511329 -32.360737
v  100.000000 -23.511329 -32.360737
v  100.000000 -12.360805 -38.042215
v  100.000000 -12.360805 -38.042215
v  100.000000 0.000000 -39.999988
v  100.000000 0.000000 -39.999988
v  100.000000 12.360805 -38.042215
v  100.000000 12.360805 -38.042215
v  100.000000 23.511329 -32.360737
v  100.000000 23.511329 -32.360737
v  100.000000 32.360631 -23.511459
v  100.000000 32.360631 -23.511459
v  100.000000 38.042289 -12.360567
v  100.000000 38.042289 -12.360567
v  0.000000 38.042289 -12.360567
v  0.000000 38.042289 -12.360567
v  0.000000 32.360631 -23.511459
v  0.000000 32.360631 -23.511459
v  0.000000 23.511329 -32.360737
v  0.000000 23.511329 -32.360737
v  0.000000 12.360805 -38.042215
v  0.000000 12.360805 -38.042215
v  0.000000 0.000000 -39.999988
v  0.000000 0.000000 -39.999988
v  0.000000 -12.360805 -38.042215
v  0.000000 -12.360805 -38.042215
v  0.000000 -23.511329 -32.360737
v  0.000000 -23.511329 -32.360737
v  0.000000 -32.360632 -23.511457
v  0.000000 -32.360632 -23.511457
v  0.000000 -38.042289 -12.360565
v  0.000000 -38.042289 -12.360565
v  0.000000 37.000000 -0.000000
v  0.000000 37.000000 -0.000000
v  0.000000 37.000000 -0.000000
v  0.000000 35.189127 -11.433503
v  0.000000 35.189127 -11.433503
v  0.000000 29.933658 -21.747995
v  0.000000 29.933658 -21.747995
v  0.000000 21.747996 -29.933658
v  0.000000 21.747996 -29.933658
v  0.000000 11.433504 -35.189127
v  0.000000 11.433504 -35.189127
v  0.000000 0.000002 -37.000000
v  0.000000 0.000002 -37.000000
v  0.000000 -11.433504 -35.189127
v  0.000000 -11.433504 -35.189127
v  0.000000 -21.747996 -29.933658
v  0.000000 -21.747996 -29.933658
v  0.000000 -29.933658 -21.747995
v  0.000000 -29.933658 -21.747995
v  0.000000 -35.189127 -11.433502
v  0.000000 -35.189127 -11.433502
v  0.000000 -37.000000 0.000000
v  0.000000 -37.000000 0.000000
v  0.000000 -37.000000 0.000000
v  0.000000 -35.189127 11.433503
v  0.000000 -35.189127 11.433503
v  0.000000 -29.933658 21.747995
v  0.000000 -29.933658 21.747995
v  0.000000 -21.747996 29.933658
v  0.000000 -21.747996 29.933658
v  0.000000 -11.433504 35.189127
v  0.000000 -11.433504 35.189127
v  0.000000 -0.000002 37.000000
v  0.000000 -0.000002 37.000000
v  0.000000 11.433504 35.189127
v  0.000000 11.433504 35.189127
v  0.000000 21.747996 29.933658
v  0.000000 21.747996 29.933658
v  0.000000 29.933658 21.747995
v  0.000000 29.933658 21.747995
v  0.000000 35.189127 11.433502
v  0.000000 35.189127 11.433502
v  100.000000 -37.000000 0.000000
v  100.000000 -37.000000 0.000000
v  100.000000 -37.000000 0.000000
v  100.000000 37.000000 -0.000000
v  100.000000 37.000000 -0.000000
v  100.000000 37.000000 -0.000000
v  100.000000 35.189127 -11.433502
v  100.000000 35.189127 -11.433502
v  100.000000 29.933658 -21.747995
v  100.000000 29.933658 -21.747995
v  100.000000 21.747996 -29.933658
v  100.000000 21.747996 -29.933658
v  100.000000 11.433504 -35.189127
v  100.000000 11.433504 -35.189127
v  100.000000 -0.000002 -37.000000
v  100.000000 -0.000002 -37.000000
v  100.000000 -11.433504 -35.189127
v  100.000000 -11.433504 -35.189127
v  100.000000 -21.747996 -29.933658
v  100.000000 -21.747996 -29.933658
v  100.000000 -29.933658 -21.747995
v  100.000000 -29.933658 -21.747995
v  100.000000 -35.189127 -11.433503
v  100.000000 -35.189127 -11.433503
v  100.000000 -35.189127 11.433502
v  100.000000 -35.189127 11.433502
v  100.000000 -29.933658 21.747995
v  100.000000 -29.933658 21.747995
v  100.000000 -21.747996 29.933658
v  100.000000 -21.747996 29.933658
v  100.000000 -11.433504 35.189127
v  100.000000 -11.433504 35.189127
v  100.000000 0.000002 37.000000
v  100.000000 0.000002 37.000000
v  100.000000 11.433504 35.189127
v  100.000000 11.433504 35.189127
v  100.000000 21.747996 29.933658
v  100.000000 21.747996 29.933658
v  100.000000 29.933658 21.747995
v  100.000000 29.933658 21.747995
v  100.000000 35.189127 11.433503
v  100.000000 35.189127 11.433503

vt  1.000000 0.500000 0.000000
vt  1.000000 0.500000 0.000000
vt  1.000000 0.500000 0.000000
vt  0.621119 0.500000 0.000000
vt  0.621119 0.500000 0.000000
vt  0.621119 0.500000 0.000000
vt  0.615711 0.536611 0.000000
vt  0.615711 0.536611 0.000000
vt  0.599622 0.570051 0.000000
vt  0.599622 0.570051 0.000000
vt  0.573504 0.597141 0.000000
vt  0.573504 0.597141 0.000000
vt  0.539147 0.614911 0.000000
vt  0.539147 0.614911 0.000000
vt  0.500000 0.621119 0.000000
vt  0.500000 0.621119 0.000000
vt  0.460853 0.614911 0.000000
vt  0.460853 0.614911 0.000000
vt  0.426496 0.597141 0.000000
vt  0.426496 0.597141 0.000000
vt  0.400378 0.570051 0.000000
vt  0.400378 0.570051 0.000000
vt  0.384289 0.536612 0.000000
vt  0.384289 0.536612 0.000000
vt  0.378881 0.500000 0.000000
vt  0.378881 0.500000 0.000000
vt  0.378881 0.500000 0.000000
vt  0.000000 0.500000 0.000000
vt  0.000000 0.500000 0.000000
vt  0.000000 0.500000 0.000000
vt  0.000000 0.599999 0.000000
vt  0.000000 0.599999 0.000000
vt  0.000000 0.700001 0.000000
vt  0.000000 0.700001 0.000000
vt  0.000000 0.800001 0.000000
vt  0.000000 0.800001 0.000000
vt  0.000000 0.899999 0.000000
vt  0.000000 0.899999 0.000000
vt  0.000000 1.000000 0.000000
vt  0.000000 1.000000 0.000000
vt  1.000000 0.899999 0.000000
vt  1.000000 0.899999 0.000000
vt  1.000000 0.800001 0.000000
vt  1.000000 0.800001 0.000000
vt  1.000000 0.700001 0.000000
vt  1.000000 0.700001 0.000000
vt  1.000000 0.599999 0.000000
vt  1.000000 0.599999 0.000000
vt  0.384289 0.463389 0.000000
vt  0.384289 0.463389 0.000000
vt  0.400378 0.429949 0.000000
vt  0.400378 0.429949 0.000000
vt  0.426496 0.402859 0.000000
vt  0.426496 0.402859 0.000000
vt  0.460853 0.385089 0.000000
vt  0.460853 0.385089 0.000000
vt  0.500000 0.378881 0.000000
vt  0.500000 0.378881 0.000000
vt  0.539147 0.385089 0.000000
vt  0.539147 0.385089 0.000000
vt  0.573504 0.402859 0.000000
vt  0.573504 0.402859 0.000000
vt  0.599622 0.429949 0.000000
vt  0.599622 0.429949 0.000000
vt  0.615711 0.463388 0.000000
vt  0.615711 0.463388 0.000000
vt  1.000000 0.400001 0.000000
vt  1.000000 0.400001 0.000000
vt  1.000000 0.299999 0.000000
vt  1.000000 0.299999 0.000000
vt  1.000000 0.199999 0.000000
vt  1.000000 0.199999 0.000000
vt  1.000000 0.100001 0.000000
vt  1.000000 0.100001 0.000000
vt  1.000000 0.000000 0.000000
vt  1.000000 0.000000 0.000000
vt  0.000000 0.100001 0.000000
vt  0.000000 0.100001 0.000000
vt  0.000000 0.199999 0.000000
vt  0.000000 0.199999 0.000000
vt  0.000000 0.299999 0.000000
vt  0.000000 0.299999 0.000000
vt  0.000000 0.400001 0.000000
vt  0.000000 0.400001 0.000000
vt  1.000000 0.500000 0.000000
vt  1.000000 0.500000 0.000000
vt  1.000000 0.500000 0.000000
vt  1.000000 0.400001 0.000000
vt  1.000000 0.400001 0.000000
vt  1.000000 0.300001 0.000000
vt  1.000000 0.300001 0.000000
vt  1.000000 0.199999 0.000000
vt  1.000000 0.199999 0.000000
vt  1.000000 0.099999 0.000000
vt  1.000000 0.099999 0.000000
vt  1.000000 0.000000 0.000000
vt  1.000000 0.000000 0.000000
vt  0.000000 0.099999 0.000000
vt  0.000000 0.099999 0.000000
vt  0.000000 0.199999 0.000000
vt  0.000000 0.199999 0.000000
vt  0.000000 0.300001 0.000000
vt  0.000000 0.300001 0.000000
vt  0.000000 0.400001 0.000000
vt  0.000000 0.400001 0.000000
vt  0.000000 0.500000 0.000000
vt  0.000000 0.500000 0.000000
vt  0.000000 0.500000 0.000000
vt  0.000000 0.599999 0.000000
vt  0.000000 0.599999 0.000000
vt  0.000000 0.699999 0.000000
vt  0.000000 0.699999 0.000000
vt  0.000000 0.800001 0.000000
vt  0.000000 0.800001 0.000000
vt  0.000000 0.900001 0.000000
vt  0.000000 0.900001 0.000000
vt  0.000000 1.000000 0.000000
vt  0.000000 1.000000 0.000000
vt  1.000000 0.900001 0.000000
vt  1.000000 0.900001 0.000000
vt  1.000000 0.800001 0.000000
vt  1.000000 0.800001 0.000000
vt  1.000000 0.699999 0.000000
vt  1.000000 0.699999 0.000000
vt  1.000000 0.599999 0.000000
vt  1.000000 0.599999 0.000000
vt  0.387197 0.500000 0.000000
vt  0.387197 0.500000 0.000000
vt  0.387197 0.500000 0.000000
vt  0.612803 0.500000 0.000000
vt  0.612803 0.500000 0.000000
vt  0.612803 0.500000 0.000000
vt  0.607703 0.465802 0.000000
vt  0.607703 0.465802 0.000000
vt  0.592580 0.434617 0.000000
vt  0.592580 0.434617 0.000000
vt  0.568165 0.409421 0.000000
vt  0.568165 0.409421 0.000000
vt  0.536237 0.392943 0.000000
vt  0.536237 0.392943 0.000000
vt  0.500000 0.387197 0.000000
vt  0.500000 0.387197 0.000000
vt  0.463763 0.392943 0.000000
vt  0.463763 0.392943 0.000000
vt  0.431835 0.409421 0.000000
vt  0.431835 0.409421 0.000000
vt  0.407420 0.434617 0.000000
vt  0.407420 0.434617 0.000000
vt  0.392297 0.465802 0.000000
vt  0.392297 0.465802 0.000000
vt  0.392297 0.534198 0.000000
vt  0.392297 0.534198 0.000000
vt  0.407420 0.565383 0.000000
vt  0.407420 0.565383 0.000000
vt  0.431835 0.590579 0.000000
vt  0.431835 0.590579 0.000000
vt  0.463763 0.607057 0.000000
vt  0.463763 0.607057 0.000000
vt  0.500000 0.612803 0.000000
vt  0.500000 0.612803 0.000000
vt  0.536237 0.607057 0.000000
vt  0.536237 0.607057 0.000000
vt  0.568165 0.590579 0.000000
vt  0.568165 0.590579 0.000000
vt  0.592580 0.565383 0.000000
vt  0.592580 0.565383 0.000000
vt  0.607703 0.534198 0.000000
vt  0.607703 0.534198 0.000000

vn  0.000000 1.000000 0.000000
vn  0.000000 1.000000 -0.000000
vn  -1.000000 0.000000 0.000000
vn  0.000000 1.000000 0.000000
vn  0.000000 1.000000 -0.000000
vn  1.000000 0.000000 0.000000
vn  0.000000 0.951057 0.309017
vn  1.000000 0.000000 0.000000
vn  0.000000 0.809017 0.587785
vn  1.000000 0.000000 0.000000
vn  0.000000 0.587785 0.809017
vn  1.000000 0.000000 0.000000
vn  0.000000 0.309017 0.951057
vn  1.000000 0.000000 0.000000
vn  0.000000 -0.000000 1.000000
vn  1.000000 0.000000 0.000000
vn  0.000000 -0.309017 0.951057
vn  1.000000 0.000000 0.000000
vn  0.000000 -0.587785 0.809017
vn  1.000000 0.000000 0.000000
vn  0.000000 -0.809017 0.587785
vn  1.000000 0.000000 0.000000
vn  0.000000 -0.951057 0.309017
vn  1.000000 0.000000 0.000000
vn  0.000000 -1.000000 0.000000
vn  0.000000 -1.000000 0.000000
vn  1.000000 0.000000 0.000000
vn  0.000000 -1.000000 0.000000
vn  0.000000 -1.000000 0.000000
vn  -1.000000 0.000000 0.000000
vn  0.000000 -0.951057 0.309017
vn  -1.000000 0.000000 0.000000
vn  0.000000 -0.809017 0.587785
vn  -1.000000 0.000000 0.000000
vn  0.000000 -0.587785 0.809017
vn  -1.000000 0.000000 0.000000
vn  0.000000 -0.309017 0.951057
vn  -1.000000 0.000000 0.000000
vn  0.000000 -0.000000 1.000000
vn  -1.000000 0.000000 0.000000
vn  0.000000 0.309017 0.951057
vn  -1.000000 0.000000 0.000000
vn  0.000000 0.587785 0.809017
vn  -1.000000 0.000000 0.000000
vn  0.000000 0.809017 0.587785
vn  -1.000000 0.000000 0.000000
vn  0.000000 0.951057 0.309017
vn  -1.000000 0.000000 0.000000
vn  0.000000 -0.951057 -0.309017
vn  1.000000 0.000000 0.000000
vn  0.000000 -0.809017 -0.587785
vn  1.000000 0.000000 0.000000
vn  0.000000 -0.587785 -0.809017
vn  1.000000 0.000000 0.000000
vn  0.000000 -0.309017 -0.951057
vn  1.000000 0.000000 0.000000
vn  0.000000 0.000000 -1.000000
vn  1.000000 0.000000 0.000000
vn  0.000000 0.309017 -0.951057
vn  1.000000 0.000000 0.000000
vn  0.000000 0.587785 -0.809017
vn  1.000000 0.000000 0.000000
vn  0.000000 0.809017 -0.587785
vn  1.000000 0.000000 0.000000
vn  0.000000 0.951057 -0.309017
vn  1.000000 0.000000 0.000000
vn  0.000000 0.951057 -0.309017
vn  -1.000000 0.000000 0.000000
vn  0.000000 0.809017 -0.587785
vn  -1.000000 0.000000 0.000000
vn  0.000000 0.587785 -0.809017
vn  -1.000000 0.000000 0.000000
vn  0.000000 0.309017 -0.951057
vn  -1.000000 0.000000 0.000000
vn  0.000000 0.000000 -1.000000
vn  -1.000000 0.000000 0.000000
vn  0.000000 -0.309017 -0.951057
vn  -1.000000 0.000000 0.000000
vn  0.000000 -0.587785 -0.809017
vn  -1.000000 0.000000 0.000000
vn  0.000000 -0.809017 -0.587785
vn  -1.000000 0.000000 0.000000
vn  0.000000 -0.951057 -0.309017
vn  -1.000000 0.000000 0.000000
vn  -1.000000 0.000000 0.000000
vn  0.000000 -1.000000 0.000000
vn  0.000000 -1.000000 0.000000
vn  -1.000000 0.000000 0.000000
vn  0.000000 -0.951057 0.309017
vn  -1.000000 0.000000 0.000000
vn  0.000000 -0.809017 0.587785
vn  -1.000000 0.000000 0.000000
vn  0.000000 -0.587785 0.809017
vn  -1.000000 0.000000 0.000000
vn  0.000000 -0.309017 0.951057
vn  -1.000000 0.000000 0.000000
vn  0.000000 -0.000000 1.000000
vn  -1.000000 0.000000 0.000000
vn  0.000000 0.309017 0.951057
vn  -1.000000 0.000000 0.000000
vn  0.000000 0.587785 0.809017
vn  -1.000000 0.000000 0.000000
vn  0.000000 0.809017 0.587785
vn  -1.000000 0.000000 0.000000
vn  0.000000 0.951057 0.309017
vn  -1.000000 0.000000 0.000000
vn  0.000000 1.000000 -0.000000
vn  0.000000 1.000000 -0.000000
vn  -1.000000 0.000000 0.000000
vn  0.000000 0.951057 -0.309017
vn  -1.000000 0.000000 0.000000
vn  0.000000 0.809017 -0.587785
vn  -1.000000 0.000000 0.000000
vn  0.000000 0.587785 -0.809017
vn  -1.000000 0.000000 0.000000
vn  0.000000 0.309017 -0.951057
vn  -1.000000 0.000000 0.000000
vn  0.000000 0.000000 -1.000000
vn  -1.000000 0.000000 0.000000
vn  0.000000 -0.309017 -0.951057
vn  -1.000000 0.000000 0.000000
vn  0.000000 -0.587785 -0.809017
vn  -1.000000 0.000000 0.000000
vn  0.000000 -0.809017 -0.587785
vn  -1.000000 0.000000 0.000000
vn  0.000000 -0.951057 -0.309017
vn  0.000000 1.000000 -0.000000
vn  0.000000 1.000000 -0.000000
vn  1.000000 0.000000 0.000000
vn  0.000000 -1.000000 0.000000
vn  0.000000 -1.000000 0.000000
vn  1.000000 0.000000 0.000000
vn  0.000000 -0.951057 0.309017
vn  1.000000 0.000000 0.000000
vn  0.000000 -0.809017 0.587785
vn  1.000000 0.000000 0.000000
vn  0.000000 -0.587785 0.809017
vn  1.000000 0.000000 0.000000
vn  0.000000 -0.309017 0.951057
vn  1.000000 0.000000 0.000000
vn  0.000000 0.000000 1.000000
vn  1.000000 0.000000 0.000000
vn  0.000000 0.309017 0.951057
vn  1.000000 0.000000 0.000000
vn  0.000000 0.587785 0.809017
vn  1.000000 0.000000 0.000000
vn  0.000000 0.809017 0.587785
vn  1.000000 0.000000 0.000000
vn  0.000000 0.951057 0.309017
vn  1.000000 0.000000 0.000000
vn  0.000000 0.951057 -0.309017
vn  1.000000 0.000000 0.000000
vn  0.000000 0.809017 -0.587785
vn  1.000000 0.000000 0.000000
vn  0.000000 0.587785 -0.809017
vn  1.000000 0.000000 0.000000
vn  0.000000 0.309017 -0.951057
vn  1.000000 0.000000 0.000000
vn  0.000000 -0.000000 -1.000000
vn  1.000000 0.000000 0.000000
vn  0.000000 -0.309017 -0.951057
vn  1.000000 0.000000 0.000000
vn  0.000000 -0.587785 -0.809017
vn  1.000000 0.000000 0.000000
vn  0.000000 -0.809017 -0.587785
vn  1.000000 0.000000 0.000000
vn  0.000000 -0.951057 -0.309017
vn  1.000000 0.000000 0.000000


g 0
g 1
usemtl DEFAULT_MTL
f 47/47/47  4/4/4  1/1/1
f 65/65/65  2/2/2  5/5/5
f 125/125/125  48/48/48  3/3/3
f 67/67/67  2/2/2  65/65/65
f 85/85/85  3/3/3  68/68/68
f 125/125/125  3/3/3  85/85/85
f 47/47/47  7/7/7  4/4/4
f 132/132/132  6/6/6  8/8/8
f 134/134/134  66/66/66  6/6/6
f 134/134/134  6/6/6  132/132/132
f 45/45/45  9/9/9  7/7/7
f 166/166/166  8/8/8  10/10/10
f 47/47/47  45/45/45  7/7/7
f 168/168/168  132/132/132  8/8/8
f 168/168/168  8/8/8  166/166/166
f 43/43/43  11/11/11  9/9/9
f 164/164/164  10/10/10  12/12/12
f 45/45/45  43/43/43  9/9/9
f 166/166/166  10/10/10  164/164/164
f 41/41/41  13/13/13  11/11/11
f 162/162/162  12/12/12  14/14/14
f 43/43/43  41/41/41  11/11/11
f 164/164/164  12/12/12  162/162/162
f 18/18/18  14/14/14  16/16/16
f 39/39/39  15/15/15  13/13/13
f 160/160/160  14/14/14  18/18/18
f 41/41/41  39/39/39  13/13/13
f 162/162/162  14/14/14  160/160/160
f 37/37/37  17/17/17  15/15/15
f 39/39/39  37/37/37  15/15/15
f 35/35/35  19/19/19  17/17/17
f 158/158/158  18/18/18  20/20/20
f 37/37/37  35/35/35  17/17/17
f 160/160/160  18/18/18  158/158/158
f 33/33/33  21/21/21  19/19/19
f 156/156/156  20/20/20  22/22/22
f 35/35/35  33/33/33  19/19/19
f 158/158/158  20/20/20  156/156/156
f 31/31/31  23/23/23  21/21/21
f 154/154/154  22/22/22  24/24/24
f 33/33/33  31/31/31  21/21/21
f 156/156/156  22/22/22  154/154/154
f 28/28/28  25/25/25  23/23/23
f 152/152/152  24/24/24  27/27/27
f 31/31/31  28/28/28  23/23/23
f 154/154/154  24/24/24  152/152/152
f 83/83/83  26/26/26  29/29/29
f 83/83/83  49/49/49  26/26/26
f 129/129/129  27/27/27  50/50/50
f 152/152/152  27/27/27  129/129/129
f 106/106/106  30/30/30  32/32/32
f 104/104/104  84/84/84  30/30/30
f 106/106/106  104/104/104  30/30/30
f 111/111/111  32/32/32  34/34/34
f 109/109/109  106/106/106  32/32/32
f 111/111/111  109/109/109  32/32/32
f 113/113/113  34/34/34  36/36/36
f 113/113/113  111/111/111  34/34/34
f 115/115/115  36/36/36  38/38/38
f 115/115/115  113/113/113  36/36/36
f 42/42/42  38/38/38  40/40/40
f 117/117/117  38/38/38  42/42/42
f 117/117/117  115/115/115  38/38/38
f 119/119/119  42/42/42  44/44/44
f 119/119/119  117/117/117  42/42/42
f 121/121/121  44/44/44  46/46/46
f 121/121/121  119/119/119  44/44/44
f 123/123/123  46/46/46  48/48/48
f 123/123/123  121/121/121  46/46/46
f 125/125/125  123/123/123  48/48/48
f 81/81/81  51/51/51  49/49/49
f 148/148/148  50/50/50  52/52/52
f 83/83/83  81/81/81  49/49/49
f 150/150/150  129/129/129  50/50/50
f 150/150/150  50/50/50  148/148/148
f 79/79/79  53/53/53  51/51/51
f 146/146/146  52/52/52  54/54/54
f 81/81/81  79/79/79  51/51/51
f 148/148/148  52/52/52  146/146/146
f 77/77/77  55/55/55  53/53/53
f 144/144/144  54/54/54  56/56/56
f 79/79/79  77/77/77  53/53/53
f 146/146/146  54/54/54  144/144/144
f 60/60/60  56/56/56  58/58/58
f 75/75/75  57/57/57  55/55/55
f 142/142/142  56/56/56  60/60/60
f 77/77/77  75/75/75  55/55/55
f 144/144/144  56/56/56  142/142/142
f 73/73/73  59/59/59  57/57/57
f 75/75/75  73/73/73  57/57/57
f 71/71/71  61/61/61  59/59/59
f 140/140/140  60/60/60  62/62/62
f 73/73/73  71/71/71  59/59/59
f 142/142/142  60/60/60  140/140/140
f 69/69/69  63/63/63  61/61/61
f 138/138/138  62/62/62  64/64/64
f 71/71/71  69/69/69  61/61/61
f 140/140/140  62/62/62  138/138/138
f 67/67/67  65/65/65  63/63/63
f 136/136/136  64/64/64  66/66/66
f 69/69/69  67/67/67  63/63/63
f 138/138/138  64/64/64  136/136/136
f 136/136/136  66/66/66  134/134/134
f 90/90/90  68/68/68  70/70/70
f 88/88/88  85/85/85  68/68/68
f 90/90/90  88/88/88  68/68/68
f 92/92/92  70/70/70  72/72/72
f 92/92/92  90/90/90  70/70/70
f 94/94/94  72/72/72  74/74/74
f 94/94/94  92/92/92  72/72/72
f 78/78/78  74/74/74  76/76/76
f 96/96/96  74/74/74  78/78/78
f 96/96/96  94/94/94  74/74/74
f 98/98/98  78/78/78  80/80/80
f 98/98/98  96/96/96  78/78/78
f 100/100/100  80/80/80  82/82/82
f 100/100/100  98/98/98  80/80/80
f 102/102/102  82/82/82  84/84/84
f 102/102/102  100/100/100  82/82/82
f 104/104/104  102/102/102  84/84/84
f 130/130/130  86/86/86  89/89/89
f 167/167/167  126/126/126  87/87/87
f 167/167/167  87/87/87  131/131/131
f 133/133/133  89/89/89  91/91/91
f 133/133/133  130/130/130  89/89/89
f 135/135/135  91/91/91  93/93/93
f 135/135/135  133/133/133  91/91/91
f 137/137/137  93/93/93  95/95/95
f 137/137/137  135/135/135  93/93/93
f 139/139/139  95/95/95  97/97/97
f 139/139/139  137/137/137  95/95/95
f 141/141/141  97/97/97  99/99/99
f 141/141/141  139/139/139  97/97/97
f 143/143/143  99/99/99  101/101/101
f 143/143/143  141/141/141  99/99/99
f 145/145/145  101/101/101  103/103/103
f 145/145/145  143/143/143  101/101/101
f 147/147/147  103/103/103  105/105/105
f 147/147/147  145/145/145  103/103/103
f 149/149/149  105/105/105  107/107/107
f 149/149/149  147/147/147  105/105/105
f 128/128/128  108/108/108  110/110/110
f 149/149/149  107/107/107  127/127/127
f 151/151/151  110/110/110  112/112/112
f 151/151/151  128/128/128  110/110/110
f 153/153/153  112/112/112  114/114/114
f 153/153/153  151/151/151  112/112/112
f 155/155/155  114/114/114  116/116/116
f 155/155/155  153/153/153  114/114/114
f 157/157/157  116/116/116  118/118/118
f 157/157/157  155/155/155  116/116/116
f 159/159/159  118/118/118  120/120/120
f 159/159/159  157/157/157  118/118/118
f 161/161/161  120/120/120  122/122/122
f 161/161/161  159/159/159  120/120/120
f 163/163/163  122/122/122  124/124/124
f 163/163/163  161/161/161  122/122/122
f 165/165/165  124/124/124  126/126/126
f 165/165/165  163/163/163  124/124/124
f 167/167/167  165/165/165  126/126/126
