mtllib prt0001.mtl

v  3.000000 0.000000 0.000000
v  3.000000 0.000000 0.000000
v  3.000000 0.000000 0.000000
v  2.121323 0.000000 -2.121318
v  2.121323 0.000000 -2.121318
v  -0.000003 0.000000 -3.000000
v  -0.000003 0.000000 -3.000000
v  -2.121318 0.000000 -2.121323
v  -2.121318 0.000000 -2.121323
v  -3.000000 0.000000 -0.000000
v  -3.000000 0.000000 -0.000000
v  -3.000000 0.000000 -0.000000
v  -2.121323 0.000000 2.121318
v  -2.121323 0.000000 2.121318
v  0.000003 0.000000 3.000000
v  0.000003 0.000000 3.000000
v  2.121318 0.000000 2.121323
v  2.121318 0.000000 2.121323
v  2.828427 50.000000 1.000000
v  2.828427 50.000000 1.000000
v  2.828427 50.000000 1.000000
v  2.956798 50.000000 0.507295
v  2.956798 50.000000 0.507295
v  3.000000 50.000000 -0.000000
v  3.000000 50.000000 -0.000000
v  3.000000 50.000000 -0.000000
v  -3.000000 50.000000 -0.000000
v  -3.000000 50.000000 -0.000000
v  -3.000000 50.000000 -0.000000
v  -2.956796 50.000000 0.507306
v  -2.956796 50.000000 0.507306
v  -2.828427 50.000000 1.000000
v  -2.828427 50.000000 1.000000
v  -2.828427 50.000000 1.000000
v  -2.828427 260.000000 1.000000
v  -2.828427 260.000000 1.000000
v  -2.828427 260.000000 1.000000
v  -2.194797 260.000000 2.045203
v  -2.194797 260.000000 2.045203
v  -1.196765 260.000000 2.750950
v  -1.196765 260.000000 2.750950
v  -0.000003 260.000000 2.999993
v  -0.000003 260.000000 2.999993
v  1.196710 260.000000 2.750973
v  1.196710 260.000000 2.750973
v  2.194763 260.000000 2.045240
v  2.194763 260.000000 2.045240
v  2.828427 260.000000 1.000000
v  2.828427 260.000000 1.000000
v  2.828427 260.000000 1.000000
v  50.000000 50.000000 1.000000
v  50.000000 50.000000 1.000000
v  50.000000 50.000000 1.000000
v  50.000000 50.000000 -1.000000
v  50.000000 50.000000 -1.000000
v  50.000000 50.000000 -1.000000
v  2.828427 50.000000 -1.000000
v  2.828427 50.000000 -1.000000
v  2.828427 50.000000 -1.000000
v  2.956794 50.000000 -0.507317
v  2.956794 50.000000 -0.507317
v  40.000000 260.000000 1.000000
v  40.000000 260.000000 1.000000
v  40.000000 260.000000 1.000000
v  40.000000 260.000000 -1.000000
v  40.000000 260.000000 -1.000000
v  40.000000 260.000000 -1.000000
v  2.828427 260.000000 -1.000000
v  2.828427 260.000000 -1.000000
v  2.828427 260.000000 -1.000000
v  2.194797 260.000000 -2.045203
v  2.194797 260.000000 -2.045203
v  1.196765 260.000000 -2.750950
v  1.196765 260.000000 -2.750950
v  0.000003 260.000000 -2.999993
v  0.000003 260.000000 -2.999993
v  -1.196710 260.000000 -2.750973
v  -1.196710 260.000000 -2.750973
v  -2.194763 260.000000 -2.045240
v  -2.194763 260.000000 -2.045240
v  -2.828427 260.000000 -1.000000
v  -2.828427 260.000000 -1.000000
v  -2.828427 260.000000 -1.000000
v  -2.828427 50.000000 -1.000000
v  -2.828427 50.000000 -1.000000
v  -2.828427 50.000000 -1.000000
v  -2.956796 50.000000 -0.507306
v  -2.956796 50.000000 -0.507306
v  -50.000000 50.000000 -1.000000
v  -50.000000 50.000000 -1.000000
v  -50.000000 50.000000 -1.000000
v  -50.000000 50.000000 1.000000
v  -50.000000 50.000000 1.000000
v  -50.000000 50.000000 1.000000
v  -40.000000 260.000000 -1.000000
v  -40.000000 260.000000 -1.000000
v  -40.000000 260.000000 -1.000000
v  -40.000000 260.000000 1.000000
v  -40.000000 260.000000 1.000000
v  -40.000000 260.000000 1.000000

vt  0.000000 0.500000 0.000000
vt  0.000000 0.500000 0.000000
vt  0.000000 0.500000 0.000000
vt  0.000000 0.250000 0.000000
vt  0.000000 0.250000 0.000000
vt  1.000000 0.000000 0.000000
vt  1.000000 0.000000 0.000000
vt  1.000000 0.250000 0.000000
vt  1.000000 0.250000 0.000000
vt  1.000000 0.500000 0.000000
vt  1.000000 0.500000 0.000000
vt  1.000000 0.500000 0.000000
vt  1.000000 0.750000 0.000000
vt  1.000000 0.750000 0.000000
vt  0.000000 1.000000 0.000000
vt  0.000000 1.000000 0.000000
vt  0.000000 0.750000 0.000000
vt  0.000000 0.750000 0.000000
vt  0.482013 0.506355 0.000000
vt  0.482013 0.506355 0.000000
vt  0.482013 0.506355 0.000000
vt  0.481198 0.503224 0.000000
vt  0.481198 0.503224 0.000000
vt  0.480924 0.500000 0.000000
vt  0.480924 0.500000 0.000000
vt  0.480924 0.500000 0.000000
vt  0.519076 0.500000 0.000000
vt  0.519076 0.500000 0.000000
vt  0.519076 0.500000 0.000000
vt  0.518802 0.503224 0.000000
vt  0.518802 0.503224 0.000000
vt  0.517987 0.506355 0.000000
vt  0.517987 0.506355 0.000000
vt  0.517987 0.506355 0.000000
vt  0.503463 0.501224 0.000000
vt  0.503463 0.501224 0.000000
vt  0.503463 0.501224 0.000000
vt  0.502687 0.502504 0.000000
vt  0.502687 0.502504 0.000000
vt  0.501465 0.503368 0.000000
vt  0.501465 0.503368 0.000000
vt  0.500000 0.503673 0.000000
vt  0.500000 0.503673 0.000000
vt  0.498535 0.503368 0.000000
vt  0.498535 0.503368 0.000000
vt  0.497313 0.502504 0.000000
vt  0.497313 0.502504 0.000000
vt  0.496537 0.501224 0.000000
vt  0.496537 0.501224 0.000000
vt  0.496537 0.501224 0.000000
vt  0.250000 0.504501 0.000000
vt  0.250000 0.504501 0.000000
vt  0.250000 0.504501 0.000000
vt  0.250000 0.495499 0.000000
vt  0.250000 0.495499 0.000000
vt  0.250000 0.495499 0.000000
vt  0.482013 0.493645 0.000000
vt  0.482013 0.493645 0.000000
vt  0.482013 0.493645 0.000000
vt  0.481198 0.496776 0.000000
vt  0.481198 0.496776 0.000000
vt  0.451410 0.501210 0.000000
vt  0.451410 0.501210 0.000000
vt  0.451410 0.501210 0.000000
vt  0.451410 0.498790 0.000000
vt  0.451410 0.498790 0.000000
vt  0.451410 0.498790 0.000000
vt  0.496537 0.498776 0.000000
vt  0.496537 0.498776 0.000000
vt  0.496537 0.498776 0.000000
vt  0.497313 0.497496 0.000000
vt  0.497313 0.497496 0.000000
vt  0.498535 0.496632 0.000000
vt  0.498535 0.496632 0.000000
vt  0.500000 0.496327 0.000000
vt  0.500000 0.496327 0.000000
vt  0.501465 0.496632 0.000000
vt  0.501465 0.496632 0.000000
vt  0.502687 0.497496 0.000000
vt  0.502687 0.497496 0.000000
vt  0.503463 0.498776 0.000000
vt  0.503463 0.498776 0.000000
vt  0.503463 0.498776 0.000000
vt  0.517987 0.493645 0.000000
vt  0.517987 0.493645 0.000000
vt  0.517987 0.493645 0.000000
vt  0.518802 0.496776 0.000000
vt  0.518802 0.496776 0.000000
vt  0.750000 0.495499 0.000000
vt  0.750000 0.495499 0.000000
vt  0.750000 0.495499 0.000000
vt  0.750000 0.504501 0.000000
vt  0.750000 0.504501 0.000000
vt  0.750000 0.504501 0.000000
vt  0.548590 0.498790 0.000000
vt  0.548590 0.498790 0.000000
vt  0.548590 0.498790 0.000000
vt  0.548590 0.501210 0.000000
vt  0.548590 0.501210 0.000000
vt  0.548590 0.501210 0.000000

vn  0.000000 -1.000000 0.000000
vn  1.000000 0.000000 0.000000
vn  1.000000 0.000000 0.000000
vn  0.000000 -1.000000 0.000000
vn  0.707108 0.000000 -0.707106
vn  0.000000 -1.000000 0.000000
vn  -0.000001 0.000000 -1.000000
vn  0.000000 -1.000000 0.000000
vn  -0.707106 0.000000 -0.707108
vn  0.000000 -1.000000 0.000000
vn  -1.000000 0.000000 0.000000
vn  -1.000000 0.000000 -0.000000
vn  0.000000 -1.000000 0.000000
vn  -0.707108 0.000000 0.707106
vn  0.000000 -1.000000 0.000000
vn  0.000001 0.000000 1.000000
vn  0.000000 -1.000000 0.000000
vn  0.707106 0.000000 0.707108
vn  0.942809 0.000000 0.333333
vn  0.000000 -1.000000 0.000000
vn  0.000000 0.000000 1.000000
vn  0.985599 0.000000 0.169098
vn  0.000000 -1.000000 0.000000
vn  1.000000 0.000000 0.000000
vn  0.000000 -1.000000 0.000000
vn  1.000000 0.000000 0.000000
vn  -1.000000 0.000000 0.000000
vn  -1.000000 0.000000 -0.000000
vn  0.000000 -1.000000 0.000000
vn  -0.985599 0.000000 0.169102
vn  0.000000 -1.000000 0.000000
vn  -0.942809 0.000000 0.333333
vn  0.000000 -1.000000 0.000000
vn  0.000000 0.000000 1.000000
vn  -0.942809 0.000000 0.333333
vn  0.000000 1.000000 0.000000
vn  0.000000 0.000000 1.000000
vn  -0.731589 0.000000 0.681746
vn  0.000000 1.000000 0.000000
vn  -0.398911 0.000000 0.916989
vn  0.000000 1.000000 0.000000
vn  -0.000001 0.000000 1.000000
vn  0.000000 1.000000 0.000000
vn  0.398893 0.000000 0.916997
vn  0.000000 1.000000 0.000000
vn  0.731578 0.000000 0.681758
vn  0.000000 1.000000 0.000000
vn  0.942809 0.000000 0.333333
vn  0.000000 0.000000 1.000000
vn  0.000000 1.000000 0.000000
vn  0.000000 -1.000000 0.000000
vn  0.000000 0.000000 1.000000
vn  0.998868 0.047565 0.000000
vn  0.000000 -1.000000 0.000000
vn  0.998868 0.047565 0.000000
vn  0.000000 0.000000 -1.000000
vn  0.000000 -1.000000 0.000000
vn  0.000000 0.000000 -1.000000
vn  0.942809 0.000000 -0.333333
vn  0.000000 -1.000000 0.000000
vn  0.985598 0.000000 -0.169106
vn  0.000000 0.000000 1.000000
vn  0.998868 0.047565 0.000000
vn  0.000000 1.000000 0.000000
vn  0.998868 0.047565 0.000000
vn  0.000000 0.000000 -1.000000
vn  0.000000 1.000000 0.000000
vn  0.000000 0.000000 -1.000000
vn  0.942809 0.000000 -0.333333
vn  0.000000 1.000000 0.000000
vn  0.731589 0.000000 -0.681746
vn  0.000000 1.000000 0.000000
vn  0.398911 0.000000 -0.916989
vn  0.000000 1.000000 0.000000
vn  0.000001 0.000000 -1.000000
vn  0.000000 1.000000 0.000000
vn  -0.398893 0.000000 -0.916997
vn  0.000000 1.000000 0.000000
vn  -0.731578 0.000000 -0.681758
vn  0.000000 1.000000 0.000000
vn  -0.942809 0.000000 -0.333333
vn  0.000000 0.000000 -1.000000
vn  0.000000 1.000000 0.000000
vn  -0.942809 0.000000 -0.333333
vn  0.000000 -1.000000 0.000000
vn  0.000000 0.000000 -1.000000
vn  -0.985599 0.000000 -0.169102
vn  0.000000 -1.000000 0.000000
vn  0.000000 -1.000000 0.000000
vn  0.000000 0.000000 -1.000000
vn  -0.998868 0.047565 0.000000
vn  0.000000 -1.000000 0.000000
vn  -0.998868 0.047565 0.000000
vn  0.000000 0.000000 1.000000
vn  0.000000 0.000000 -1.000000
vn  0.000000 1.000000 0.000000
vn  -0.998868 0.047565 0.000000
vn  0.000000 1.000000 0.000000
vn  -0.998868 0.047565 0.000000
vn  0.000000 0.000000 1.000000


g 0
g 1
usemtl DEFAULT_MTL
f 17/17/17  4/4/4  1/1/1
f 26/26/26  3/3/3  5/5/5
f 19/19/19  18/18/18  2/2/2
f 22/22/22  19/19/19  2/2/2
f 24/24/24  22/22/22  2/2/2
f 15/15/15  6/6/6  4/4/4
f 73/73/73  5/5/5  7/7/7
f 17/17/17  15/15/15  4/4/4
f 61/61/61  26/26/26  5/5/5
f 61/61/61  5/5/5  59/59/59
f 69/69/69  59/59/59  5/5/5
f 71/71/71  69/69/69  5/5/5
f 73/73/73  71/71/71  5/5/5
f 13/13/13  8/8/8  6/6/6
f 75/75/75  7/7/7  9/9/9
f 15/15/15  13/13/13  6/6/6
f 75/75/75  73/73/73  7/7/7
f 13/13/13  10/10/10  8/8/8
f 84/84/84  9/9/9  12/12/12
f 77/77/77  75/75/75  9/9/9
f 79/79/79  77/77/77  9/9/9
f 84/84/84  79/79/79  9/9/9
f 27/27/27  11/11/11  14/14/14
f 87/87/87  12/12/12  28/28/28
f 87/87/87  84/84/84  12/12/12
f 40/40/40  14/14/14  16/16/16
f 30/30/30  27/27/27  14/14/14
f 32/32/32  30/30/30  14/14/14
f 35/35/35  32/32/32  14/14/14
f 38/38/38  35/35/35  14/14/14
f 40/40/40  38/38/38  14/14/14
f 42/42/42  16/16/16  18/18/18
f 42/42/42  40/40/40  16/16/16
f 46/46/46  18/18/18  19/19/19
f 44/44/44  42/42/42  18/18/18
f 46/46/46  44/44/44  18/18/18
f 54/54/54  20/20/20  23/23/23
f 48/48/48  46/46/46  19/19/19
f 62/62/62  49/49/49  21/21/21
f 54/54/54  51/51/51  20/20/20
f 62/62/62  21/21/21  52/52/52
f 54/54/54  23/23/23  25/25/25
f 60/60/60  54/54/54  25/25/25
f 92/92/92  29/29/29  31/31/31
f 92/92/92  88/88/88  29/29/29
f 92/92/92  31/31/31  33/33/33
f 94/94/94  34/34/34  37/37/37
f 83/83/83  36/36/36  39/39/39
f 96/96/96  36/36/36  83/83/83
f 100/100/100  94/94/94  37/37/37
f 98/98/98  36/36/36  96/96/96
f 80/80/80  39/39/39  41/41/41
f 83/83/83  39/39/39  80/80/80
f 78/78/78  41/41/41  43/43/43
f 80/80/80  41/41/41  78/78/78
f 76/76/76  43/43/43  45/45/45
f 78/78/78  43/43/43  76/76/76
f 74/74/74  45/45/45  47/47/47
f 76/76/76  45/45/45  74/74/74
f 72/72/72  47/47/47  50/50/50
f 74/74/74  47/47/47  72/72/72
f 70/70/70  50/50/50  64/64/64
f 72/72/72  50/50/50  70/70/70
f 65/65/65  53/53/53  55/55/55
f 65/65/65  63/63/63  53/53/53
f 60/60/60  57/57/57  54/54/54
f 68/68/68  56/56/56  58/58/58
f 68/68/68  66/66/66  56/56/56
f 70/70/70  64/64/64  67/67/67
f 84/84/84  81/81/81  79/79/79
f 95/95/95  82/82/82  86/86/86
f 92/92/92  85/85/85  88/88/88
f 92/92/92  89/89/89  85/85/85
f 95/95/95  86/86/86  90/90/90
f 99/99/99  91/91/91  93/93/93
f 99/99/99  97/97/97  91/91/91
